<svg xmlns="http://www.w3.org/2000/svg" xmlns:xlink="http://www.w3.org/1999/xlink" viewBox="0 0 750.02 559.31"><defs><style>.cls-1,.cls-10,.cls-11,.cls-6,.cls-7,.cls-8{fill:none;}.cls-2{fill:#081b42;}.cls-3{fill:#e84a5f;}.cls-4{fill:#a1d1ff;}.cls-5{fill:#fff;}.cls-10,.cls-6,.cls-7{stroke:#f7bf5e;}.cls-6,.cls-7,.cls-8{stroke-linecap:round;}.cls-10,.cls-11,.cls-6,.cls-7,.cls-8{stroke-miterlimit:10;}.cls-6{stroke-width:3px;}.cls-11,.cls-8{stroke:#e84a5f;}.cls-9{clip-path:url(#clip-path);}.cls-11{stroke-width:4px;}</style><clipPath id="clip-path"><rect class="cls-1" x="0.23" y="341.55" width="749.77" height="158.45"/></clipPath></defs><g id="Слой_2" data-name="Слой 2"><g id="BACKGROUND"><rect class="cls-2" width="750" height="500"/></g><g id="OBJECTS"><circle class="cls-3" cx="375" cy="166.67" r="106"/><path class="cls-4" d="M697.41,406.75a799.63,799.63,0,0,1-312.85-279H365.44a799.63,799.63,0,0,1-312.85,279"/><path class="cls-5" d="M375,188a24.63,24.63,0,0,0,21-11.73,24.68,24.68,0,0,0,30.46,9.85q-22.21-28.18-41.9-58.35H365.44q-19.65,30.15-41.9,58.35A24.68,24.68,0,0,0,354,176.27,24.63,24.63,0,0,0,375,188Z"/><path class="cls-6" d="M280.24,47.55a30.43,30.43,0,0,1,58.07-.11"/><path class="cls-6" d="M289.37,49.26a21.23,21.23,0,0,1,39.84,0"/><path class="cls-6" d="M297.58,53.84a12,12,0,0,1,23.43,0"/><path class="cls-6" d="M249.86,68.78a30.42,30.42,0,0,1,58.06-.12"/><path class="cls-6" d="M259,70.49a21.24,21.24,0,0,1,39.85,0"/><path class="cls-6" d="M267.19,75.06a12,12,0,0,1,23.43,0"/><path class="cls-6" d="M310.63,68.78a30.42,30.42,0,0,1,58.06-.12"/><path class="cls-6" d="M319.75,70.49a21.24,21.24,0,0,1,39.85,0"/><path class="cls-6" d="M328,75.06a12,12,0,0,1,23.43,0"/><path class="cls-7" d="M502.72,216a10.77,10.77,0,0,1,20.56,0"/><path class="cls-7" d="M506,216.62a7.52,7.52,0,0,1,14.11,0"/><path class="cls-7" d="M508.86,218.23a4.26,4.26,0,0,1,8.29,0"/><path class="cls-7" d="M492,223.52a10.78,10.78,0,0,1,20.56,0"/><path class="cls-7" d="M495.19,224.13a7.52,7.52,0,0,1,14.11,0"/><path class="cls-7" d="M498.1,225.75a4.27,4.27,0,0,1,8.3,0"/><path class="cls-7" d="M513.48,223.52a10.78,10.78,0,0,1,20.56,0"/><path class="cls-7" d="M516.71,224.13a7.52,7.52,0,0,1,14.11,0"/><path class="cls-7" d="M519.62,225.75a4.26,4.26,0,0,1,8.29,0"/><path class="cls-8" d="M188.11,304.19a13.15,13.15,0,0,1,25.09-.05"/><path class="cls-8" d="M192.06,304.93a9.17,9.17,0,0,1,17.21,0"/><path class="cls-8" d="M195.6,306.91a5.2,5.2,0,0,1,10.12,0"/><path class="cls-8" d="M175,313.36a13.14,13.14,0,0,1,25.08-.05"/><path class="cls-8" d="M178.93,314.1a9.18,9.18,0,0,1,17.22,0"/><path class="cls-8" d="M182.48,316.08a5.2,5.2,0,0,1,10.12,0"/><path class="cls-8" d="M201.24,313.36a13.14,13.14,0,0,1,25.08-.05"/><path class="cls-8" d="M205.18,314.1a9.17,9.17,0,0,1,17.21,0"/><path class="cls-8" d="M208.73,316.08a5.2,5.2,0,0,1,10.12,0"/><path class="cls-7" d="M96.7,197.22a15.91,15.91,0,0,1,30.35-.06"/><path class="cls-7" d="M101.47,198.12a11.09,11.09,0,0,1,20.82,0"/><path class="cls-7" d="M105.76,200.51a6.29,6.29,0,0,1,12.24,0"/><path class="cls-7" d="M80.82,208.31a15.91,15.91,0,0,1,30.35-.05"/><path class="cls-7" d="M85.59,209.21a11.1,11.1,0,0,1,20.83,0"/><path class="cls-7" d="M89.88,211.6a6.29,6.29,0,0,1,12.25,0"/><path class="cls-7" d="M112.58,208.31a15.9,15.9,0,0,1,30.34-.05"/><path class="cls-7" d="M117.35,209.21a11.09,11.09,0,0,1,20.82,0"/><path class="cls-7" d="M121.64,211.6a6.29,6.29,0,0,1,12.24,0"/><path class="cls-8" d="M638.09,60.19a14.36,14.36,0,0,1,27.4,0"/><path class="cls-8" d="M642.4,61a10,10,0,0,1,18.8,0"/><path class="cls-8" d="M646.27,63.16a5.67,5.67,0,0,1,11.05,0"/><path class="cls-8" d="M623.75,70.21a14.36,14.36,0,0,1,27.4-.06"/><path class="cls-8" d="M628.06,71a10,10,0,0,1,18.8,0"/><path class="cls-8" d="M631.93,73.17a5.68,5.68,0,0,1,11.06,0"/><path class="cls-8" d="M652.43,70.21a14.36,14.36,0,0,1,27.4-.06"/><path class="cls-8" d="M656.73,71a10,10,0,0,1,18.81,0"/><path class="cls-8" d="M660.61,73.17a5.68,5.68,0,0,1,11,0"/><g class="cls-9"><path class="cls-2" d="M712.33,374.59c-.57,0-1.13,0-1.69,0v-.18a37.33,37.33,0,0,0-71.22.14v.06c-.68,0-1.37-.06-2.06-.06s-1.13,0-1.69,0v-.18a37.33,37.33,0,0,0-71.22.14v.06c-.68,0-1.37-.06-2.06-.06s-1.13,0-1.69,0v-.18a37.33,37.33,0,0,0-71.22.14v.06c-.68,0-1.37-.06-2.06-.06s-1.13,0-1.69,0v-.18a37.33,37.33,0,0,0-71.22.14v.06c-.68,0-1.37-.06-2.06-.06s-1.13,0-1.69,0v-.18a37.33,37.33,0,0,0-71.22.14v.06c-.68,0-1.37-.06-2.06-.06s-1.13,0-1.69,0v-.18a37.33,37.33,0,0,0-71.22.14v.06c-.68,0-1.37-.06-2.06-.06s-1.13,0-1.69,0v-.18a37.33,37.33,0,0,0-71.22.14v.06c-.68,0-1.37-.06-2.06-.06s-1.13,0-1.69,0v-.18a37.33,37.33,0,0,0-71.22.14v.06c-.68,0-1.37-.06-2.06-.06s-1.13,0-1.69,0v-.18a37.32,37.32,0,0,0-71.21.14v.06q-1-.06-2.07-.06A37.32,37.32,0,0,0,2,400.52a36.71,36.71,0,0,1,11.13,2.3,36.8,36.8,0,0,1,10,5.68,37.22,37.22,0,0,1,12.47,18v0q1-.06,2.1-.06c.57,0,1.14,0,1.71,0a36.79,36.79,0,0,1,11.14,2.24,26,26,0,0,1,48.88,0l0,.13a36.86,36.86,0,0,1,11.1-2.35q1-.06,2.1-.06c.57,0,1.14,0,1.71,0a36.79,36.79,0,0,1,11.14,2.24,26,26,0,0,1,48.88,0l.05.13a36.86,36.86,0,0,1,11.1-2.35q1-.06,2.1-.06c.57,0,1.14,0,1.71,0a36.79,36.79,0,0,1,11.14,2.24,26,26,0,0,1,48.88,0l0,.13a36.86,36.86,0,0,1,11.1-2.35q1-.06,2.1-.06c.57,0,1.14,0,1.71,0a36.79,36.79,0,0,1,11.14,2.24,26,26,0,0,1,48.88,0l.05.13a36.79,36.79,0,0,1,11.09-2.34c.7-.05,1.4-.07,2.11-.07s1.14,0,1.71,0a36.79,36.79,0,0,1,11.14,2.24,26,26,0,0,1,48.87,0l0,.14a36.56,36.56,0,0,1,11.1-2.35c.7-.05,1.4-.07,2.11-.07s1.14,0,1.71,0a36.79,36.79,0,0,1,11.14,2.24,26,26,0,0,1,48.87,0l.05.14a36.56,36.56,0,0,1,11.1-2.35c.7-.05,1.4-.07,2.11-.07s1.14,0,1.71,0a36.79,36.79,0,0,1,11.14,2.24,26,26,0,0,1,48.87,0l.05.14a36.56,36.56,0,0,1,11.1-2.35c.7-.05,1.4-.07,2.11-.07s1.14,0,1.71,0a36.79,36.79,0,0,1,11.14,2.24,26,26,0,0,1,48.87,0l.05.14a36.56,36.56,0,0,1,11.1-2.35c.7-.05,1.4-.07,2.11-.07s1.14,0,1.71,0a36.79,36.79,0,0,1,11.14,2.24,26,26,0,0,1,48.87,0l.05.14a36.56,36.56,0,0,1,11.1-2.35c.7-.05,1.4-.07,2.11-.07s1.14,0,1.71,0a37.15,37.15,0,0,1,12.45-18h0a37.15,37.15,0,0,1,21.17-8A37.31,37.31,0,0,0,712.33,374.59Z"/><path class="cls-10" d="M714.39,530.83A37.33,37.33,0,0,1,750,504.61"/><path class="cls-10" d="M725.58,532.93a26,26,0,0,1,24.44-17"/><path class="cls-10" d="M676.7,504.8a37.31,37.31,0,0,1,71.21-.14"/><path class="cls-10" d="M687.89,506.9a26,26,0,0,1,48.87,0"/><path class="cls-10" d="M698,512.5a14.76,14.76,0,0,1,28.74,0"/><path class="cls-10" d="M639.41,530.83a37.32,37.32,0,0,1,71.22-.14"/><path class="cls-10" d="M650.61,532.93a26,26,0,0,1,48.87,0"/><path class="cls-10" d="M601.72,504.8a37.31,37.31,0,0,1,71.21-.14"/><path class="cls-10" d="M612.91,506.9a26,26,0,0,1,48.87,0"/><path class="cls-10" d="M623,512.5a14.76,14.76,0,0,1,28.74,0"/><path class="cls-10" d="M564.43,530.83a37.32,37.32,0,0,1,71.22-.14"/><path class="cls-10" d="M575.63,532.93a26,26,0,0,1,48.87,0"/><path class="cls-10" d="M714.19,426.68a37.32,37.32,0,0,1,35.63-26.22"/><path class="cls-10" d="M725.38,428.78a26,26,0,0,1,24.44-17"/><path class="cls-10" d="M735.45,434.38A14.76,14.76,0,0,1,749.82,423"/><path class="cls-10" d="M714.19,478.92a37.33,37.33,0,0,1,35.63-26.21"/><path class="cls-10" d="M725.38,481a26.05,26.05,0,0,1,24.44-17"/><path class="cls-10" d="M735.45,486.63a14.76,14.76,0,0,1,14.37-11.37"/><path class="cls-10" d="M676.9,452.71a37.33,37.33,0,0,1,71.22-.14"/><path class="cls-10" d="M688.09,454.81a26,26,0,0,1,48.88,0"/><path class="cls-10" d="M698.17,460.42a14.76,14.76,0,0,1,28.73,0"/><path class="cls-10" d="M639.21,426.68a37.31,37.31,0,0,1,71.21-.14"/><path class="cls-10" d="M650.4,428.78a26,26,0,0,1,48.87,0"/><path class="cls-10" d="M660.47,434.38a14.76,14.76,0,0,1,28.74,0"/><path class="cls-10" d="M639.21,478.92a37.32,37.32,0,0,1,71.21-.13"/><path class="cls-10" d="M650.4,481a26,26,0,0,1,48.87,0"/><path class="cls-10" d="M660.47,486.63a14.77,14.77,0,0,1,28.74,0"/><path class="cls-10" d="M601.92,452.71a37.33,37.33,0,0,1,71.22-.14"/><path class="cls-10" d="M613.12,454.81a26,26,0,0,1,48.87,0"/><path class="cls-10" d="M623.19,460.42a14.76,14.76,0,0,1,28.73,0"/><path class="cls-10" d="M564.23,426.68a37.31,37.31,0,0,1,71.21-.14"/><path class="cls-10" d="M575.42,428.78a26,26,0,0,1,48.87,0"/><path class="cls-10" d="M585.49,434.38a14.76,14.76,0,0,1,28.74,0"/><path class="cls-10" d="M564.23,478.92a37.32,37.32,0,0,1,71.21-.13"/><path class="cls-10" d="M575.42,481a26,26,0,0,1,48.87,0"/><path class="cls-10" d="M585.49,486.63a14.77,14.77,0,0,1,28.74,0"/><path class="cls-10" d="M714.39,374.59A37.32,37.32,0,0,1,750,348.38"/><path class="cls-10" d="M725.58,376.69a26,26,0,0,1,24.44-17"/><path class="cls-10" d="M735.66,382.3A14.75,14.75,0,0,1,750,370.93"/><path class="cls-10" d="M676.7,400.8a37.32,37.32,0,0,1,71.21-.13"/><path class="cls-10" d="M687.89,402.9a26,26,0,0,1,48.87,0"/><path class="cls-10" d="M698,408.51a14.77,14.77,0,0,1,28.74,0"/><path class="cls-10" d="M639.41,374.59a37.33,37.33,0,0,1,71.22-.14"/><path class="cls-10" d="M650.61,376.69a26,26,0,0,1,48.87,0"/><path class="cls-10" d="M660.67,382.3a14.77,14.77,0,0,1,28.74,0"/><path class="cls-10" d="M601.72,400.8a37.32,37.32,0,0,1,71.21-.13"/><path class="cls-10" d="M612.91,402.9a26,26,0,0,1,48.87,0"/><path class="cls-10" d="M623,408.51a14.77,14.77,0,0,1,28.74,0"/><path class="cls-10" d="M564.43,374.59a37.33,37.33,0,0,1,71.22-.14"/><path class="cls-10" d="M575.63,376.69a26,26,0,0,1,48.87,0"/><path class="cls-10" d="M585.7,382.3a14.76,14.76,0,0,1,28.73,0"/><path class="cls-10" d="M714.39,530.83A37.33,37.33,0,0,1,750,504.61"/><path class="cls-10" d="M725.58,532.93a26,26,0,0,1,24.44-17"/><path class="cls-10" d="M735.66,538.53A14.76,14.76,0,0,1,750,527.16"/><path class="cls-10" d="M676.7,557a37.32,37.32,0,0,1,71.21-.14"/><path class="cls-10" d="M687.89,559.14a26,26,0,0,1,48.87,0"/><path class="cls-10" d="M639.41,530.83a37.32,37.32,0,0,1,71.22-.14"/><path class="cls-10" d="M650.61,532.93a26,26,0,0,1,48.87,0"/><path class="cls-10" d="M660.67,538.53a14.76,14.76,0,0,1,28.74,0"/><path class="cls-10" d="M601.72,557a37.32,37.32,0,0,1,71.21-.14"/><path class="cls-10" d="M612.91,559.14a26,26,0,0,1,48.87,0"/><path class="cls-10" d="M564.43,530.83a37.32,37.32,0,0,1,71.22-.14"/><path class="cls-10" d="M575.63,532.93a26,26,0,0,1,48.87,0"/><path class="cls-10" d="M585.7,538.53a14.76,14.76,0,0,1,28.73,0"/><path class="cls-10" d="M564.43,530.83a37.32,37.32,0,0,1,71.22-.14"/><path class="cls-10" d="M575.63,532.93a26,26,0,0,1,48.87,0"/><path class="cls-10" d="M526.74,504.8a37.31,37.31,0,0,1,71.21-.14"/><path class="cls-10" d="M537.93,506.9a26,26,0,0,1,48.87,0"/><path class="cls-10" d="M548,512.5a14.76,14.76,0,0,1,28.74,0"/><path class="cls-10" d="M489.45,530.83a37.32,37.32,0,0,1,71.22-.14"/><path class="cls-10" d="M500.65,532.93a26,26,0,0,1,48.87,0"/><path class="cls-10" d="M451.76,504.8a37.31,37.31,0,0,1,71.21-.14"/><path class="cls-10" d="M463,506.9a26,26,0,0,1,48.87,0"/><path class="cls-10" d="M473,512.5a14.76,14.76,0,0,1,28.74,0"/><path class="cls-10" d="M414.47,530.83a37.32,37.32,0,0,1,71.22-.14"/><path class="cls-10" d="M425.67,532.93a26,26,0,0,1,48.87,0"/><path class="cls-10" d="M564.23,426.68a37.31,37.31,0,0,1,71.21-.14"/><path class="cls-10" d="M575.42,428.78a26,26,0,0,1,48.87,0"/><path class="cls-10" d="M585.49,434.38a14.76,14.76,0,0,1,28.74,0"/><path class="cls-10" d="M564.23,478.92a37.32,37.32,0,0,1,71.21-.13"/><path class="cls-10" d="M575.42,481a26,26,0,0,1,48.87,0"/><path class="cls-10" d="M585.49,486.63a14.77,14.77,0,0,1,28.74,0"/><path class="cls-10" d="M526.94,452.71a37.33,37.33,0,0,1,71.22-.14"/><path class="cls-10" d="M538.14,454.81a26,26,0,0,1,48.87,0"/><path class="cls-10" d="M548.21,460.42a14.76,14.76,0,0,1,28.73,0"/><path class="cls-10" d="M489.25,426.68a37.31,37.31,0,0,1,71.21-.14"/><path class="cls-10" d="M500.44,428.78a26,26,0,0,1,48.87,0"/><path class="cls-10" d="M510.51,434.38a14.76,14.76,0,0,1,28.74,0"/><path class="cls-10" d="M489.25,478.92a37.32,37.32,0,0,1,71.21-.13"/><path class="cls-10" d="M500.44,481a26,26,0,0,1,48.87,0"/><path class="cls-10" d="M510.51,486.63a14.77,14.77,0,0,1,28.74,0"/><path class="cls-10" d="M452,452.71a37.33,37.33,0,0,1,71.22-.14"/><path class="cls-10" d="M463.16,454.81a26,26,0,0,1,48.87,0"/><path class="cls-10" d="M473.23,460.42a14.76,14.76,0,0,1,28.73,0"/><path class="cls-10" d="M414.27,426.68a37.32,37.32,0,0,1,71.22-.14"/><path class="cls-10" d="M425.46,428.78a26,26,0,0,1,48.87,0"/><path class="cls-10" d="M435.53,434.38a14.76,14.76,0,0,1,28.74,0"/><path class="cls-10" d="M414.27,478.92a37.32,37.32,0,0,1,71.22-.13"/><path class="cls-10" d="M425.46,481a26,26,0,0,1,48.87,0"/><path class="cls-10" d="M435.53,486.63a14.77,14.77,0,0,1,28.74,0"/><path class="cls-10" d="M564.43,374.59a37.33,37.33,0,0,1,71.22-.14"/><path class="cls-10" d="M575.63,376.69a26,26,0,0,1,48.87,0"/><path class="cls-10" d="M585.7,382.3a14.76,14.76,0,0,1,28.73,0"/><path class="cls-10" d="M526.74,400.8a37.32,37.32,0,0,1,71.21-.13"/><path class="cls-10" d="M537.93,402.9a26,26,0,0,1,48.87,0"/><path class="cls-10" d="M548,408.51a14.77,14.77,0,0,1,28.74,0"/><path class="cls-10" d="M489.45,374.59a37.33,37.33,0,0,1,71.22-.14"/><path class="cls-10" d="M500.65,376.69a26,26,0,0,1,48.87,0"/><path class="cls-10" d="M510.72,382.3a14.76,14.76,0,0,1,28.73,0"/><path class="cls-10" d="M451.76,400.8a37.32,37.32,0,0,1,71.21-.13"/><path class="cls-10" d="M463,402.9a26,26,0,0,1,48.87,0"/><path class="cls-10" d="M473,408.51a14.77,14.77,0,0,1,28.74,0"/><path class="cls-10" d="M414.47,374.59a37.33,37.33,0,0,1,71.22-.14"/><path class="cls-10" d="M425.67,376.69a26,26,0,0,1,48.87,0"/><path class="cls-10" d="M435.74,382.3a14.76,14.76,0,0,1,28.73,0"/><path class="cls-10" d="M564.43,530.83a37.32,37.32,0,0,1,71.22-.14"/><path class="cls-10" d="M575.63,532.93a26,26,0,0,1,48.87,0"/><path class="cls-10" d="M585.7,538.53a14.76,14.76,0,0,1,28.73,0"/><path class="cls-10" d="M526.74,557A37.32,37.32,0,0,1,598,556.9"/><path class="cls-10" d="M537.93,559.14a26,26,0,0,1,48.87,0"/><path class="cls-10" d="M489.45,530.83a37.32,37.32,0,0,1,71.22-.14"/><path class="cls-10" d="M500.65,532.93a26,26,0,0,1,48.87,0"/><path class="cls-10" d="M510.72,538.53a14.76,14.76,0,0,1,28.73,0"/><path class="cls-10" d="M451.76,557A37.32,37.32,0,0,1,523,556.9"/><path class="cls-10" d="M463,559.14a26,26,0,0,1,48.87,0"/><path class="cls-10" d="M414.47,530.83a37.32,37.32,0,0,1,71.22-.14"/><path class="cls-10" d="M425.67,532.93a26,26,0,0,1,48.87,0"/><path class="cls-10" d="M435.74,538.53a14.76,14.76,0,0,1,28.73,0"/><path class="cls-10" d="M414.47,530.83a37.32,37.32,0,0,1,71.22-.14"/><path class="cls-10" d="M425.67,532.93a26,26,0,0,1,48.87,0"/><path class="cls-10" d="M376.78,504.8a37.32,37.32,0,0,1,71.22-.14"/><path class="cls-10" d="M388,506.9a26,26,0,0,1,48.87,0"/><path class="cls-10" d="M398,512.5a14.76,14.76,0,0,1,28.74,0"/><path class="cls-10" d="M339.49,530.83a37.32,37.32,0,0,1,71.22-.14"/><path class="cls-10" d="M350.69,532.93a26,26,0,0,1,48.87,0"/><path class="cls-10" d="M301.8,504.8a37.32,37.32,0,0,1,71.22-.14"/><path class="cls-10" d="M313,506.9a26,26,0,0,1,48.88,0"/><path class="cls-10" d="M323.06,512.5a14.76,14.76,0,0,1,28.74,0"/><path class="cls-10" d="M264.51,530.83a37.32,37.32,0,0,1,71.22-.14"/><path class="cls-10" d="M275.71,532.93a26,26,0,0,1,48.87,0"/><path class="cls-10" d="M414.27,426.68a37.32,37.32,0,0,1,71.22-.14"/><path class="cls-10" d="M425.46,428.78a26,26,0,0,1,48.87,0"/><path class="cls-10" d="M435.53,434.38a14.76,14.76,0,0,1,28.74,0"/><path class="cls-10" d="M414.27,478.92a37.32,37.32,0,0,1,71.22-.13"/><path class="cls-10" d="M425.46,481a26,26,0,0,1,48.87,0"/><path class="cls-10" d="M435.53,486.63a14.77,14.77,0,0,1,28.74,0"/><path class="cls-10" d="M377,452.71a37.33,37.33,0,0,1,71.22-.14"/><path class="cls-10" d="M388.18,454.81a26,26,0,0,1,48.87,0"/><path class="cls-10" d="M398.25,460.42a14.76,14.76,0,0,1,28.73,0"/><path class="cls-10" d="M339.29,426.68a37.31,37.31,0,0,1,71.21-.14"/><path class="cls-10" d="M350.48,428.78a26,26,0,0,1,48.88,0"/><path class="cls-10" d="M360.55,434.38a14.76,14.76,0,0,1,28.74,0"/><path class="cls-10" d="M339.29,478.92a37.32,37.32,0,0,1,71.21-.13"/><path class="cls-10" d="M350.48,481a26,26,0,0,1,48.88,0"/><path class="cls-10" d="M360.55,486.63a14.77,14.77,0,0,1,28.74,0"/><path class="cls-10" d="M302,452.71a37.33,37.33,0,0,1,71.22-.14"/><path class="cls-10" d="M313.2,454.81a26,26,0,0,1,48.87,0"/><path class="cls-10" d="M323.27,460.42a14.76,14.76,0,0,1,28.73,0"/><path class="cls-10" d="M264.31,426.68a37.32,37.32,0,0,1,71.22-.14"/><path class="cls-10" d="M275.5,428.78a26,26,0,0,1,48.88,0"/><path class="cls-10" d="M285.57,434.38a14.76,14.76,0,0,1,28.74,0"/><path class="cls-10" d="M264.31,478.92a37.32,37.32,0,0,1,71.22-.13"/><path class="cls-10" d="M275.5,481a26,26,0,0,1,48.88,0"/><path class="cls-10" d="M285.57,486.63a14.77,14.77,0,0,1,28.74,0"/><path class="cls-10" d="M414.47,374.59a37.33,37.33,0,0,1,71.22-.14"/><path class="cls-10" d="M425.67,376.69a26,26,0,0,1,48.87,0"/><path class="cls-10" d="M435.74,382.3a14.76,14.76,0,0,1,28.73,0"/><path class="cls-10" d="M376.78,400.8a37.32,37.32,0,0,1,71.22-.13"/><path class="cls-10" d="M388,402.9a26,26,0,0,1,48.87,0"/><path class="cls-10" d="M398,408.51a14.77,14.77,0,0,1,28.74,0"/><path class="cls-10" d="M339.49,374.59a37.33,37.33,0,0,1,71.22-.14"/><path class="cls-10" d="M350.69,376.69a26,26,0,0,1,48.87,0"/><path class="cls-10" d="M360.76,382.3a14.76,14.76,0,0,1,28.73,0"/><path class="cls-10" d="M301.8,400.8a37.32,37.32,0,0,1,71.22-.13"/><path class="cls-10" d="M313,402.9a26,26,0,0,1,48.88,0"/><path class="cls-10" d="M323.06,408.51a14.77,14.77,0,0,1,28.74,0"/><path class="cls-10" d="M264.51,374.59a37.33,37.33,0,0,1,71.22-.14"/><path class="cls-10" d="M275.71,376.69a26,26,0,0,1,48.87,0"/><path class="cls-10" d="M285.78,382.3a14.76,14.76,0,0,1,28.73,0"/><path class="cls-10" d="M414.47,530.83a37.32,37.32,0,0,1,71.22-.14"/><path class="cls-10" d="M425.67,532.93a26,26,0,0,1,48.87,0"/><path class="cls-10" d="M435.74,538.53a14.76,14.76,0,0,1,28.73,0"/><path class="cls-10" d="M376.78,557A37.33,37.33,0,0,1,448,556.9"/><path class="cls-10" d="M388,559.14a26,26,0,0,1,48.87,0"/><path class="cls-10" d="M339.49,530.83a37.32,37.32,0,0,1,71.22-.14"/><path class="cls-10" d="M350.69,532.93a26,26,0,0,1,48.87,0"/><path class="cls-10" d="M360.76,538.53a14.76,14.76,0,0,1,28.73,0"/><path class="cls-10" d="M301.8,557A37.33,37.33,0,0,1,373,556.9"/><path class="cls-10" d="M313,559.14a26,26,0,0,1,48.88,0"/><path class="cls-10" d="M264.51,530.83a37.32,37.32,0,0,1,71.22-.14"/><path class="cls-10" d="M275.71,532.93a26,26,0,0,1,48.87,0"/><path class="cls-10" d="M285.78,538.53a14.76,14.76,0,0,1,28.73,0"/><path class="cls-10" d="M264.51,530.83a37.32,37.32,0,0,1,71.22-.14"/><path class="cls-10" d="M275.71,532.93a26,26,0,0,1,48.87,0"/><path class="cls-10" d="M226.82,504.8a37.32,37.32,0,0,1,71.22-.14"/><path class="cls-10" d="M238,506.9a26,26,0,0,1,48.88,0"/><path class="cls-10" d="M248.08,512.5a14.76,14.76,0,0,1,28.74,0"/><path class="cls-10" d="M189.54,530.83a37.31,37.31,0,0,1,71.21-.14"/><path class="cls-10" d="M200.73,532.93a26,26,0,0,1,48.87,0"/><path class="cls-10" d="M151.84,504.8a37.32,37.32,0,0,1,71.22-.14"/><path class="cls-10" d="M163,506.9a26,26,0,0,1,48.88,0"/><path class="cls-10" d="M173.1,512.5a14.76,14.76,0,0,1,28.74,0"/><path class="cls-10" d="M114.56,530.83a37.31,37.31,0,0,1,71.21-.14"/><path class="cls-10" d="M125.75,532.93a26,26,0,0,1,48.87,0"/><path class="cls-10" d="M264.31,426.68a37.32,37.32,0,0,1,71.22-.14"/><path class="cls-10" d="M275.5,428.78a26,26,0,0,1,48.88,0"/><path class="cls-10" d="M285.57,434.38a14.76,14.76,0,0,1,28.74,0"/><path class="cls-10" d="M264.31,478.92a37.32,37.32,0,0,1,71.22-.13"/><path class="cls-10" d="M275.5,481a26,26,0,0,1,48.88,0"/><path class="cls-10" d="M285.57,486.63a14.77,14.77,0,0,1,28.74,0"/><path class="cls-10" d="M227,452.71a37.33,37.33,0,0,1,71.22-.14"/><path class="cls-10" d="M238.22,454.81a26,26,0,0,1,48.87,0"/><path class="cls-10" d="M248.29,460.42a14.76,14.76,0,0,1,28.73,0"/><path class="cls-10" d="M189.33,426.68a37.32,37.32,0,0,1,71.22-.14"/><path class="cls-10" d="M200.52,428.78a26,26,0,0,1,48.88,0"/><path class="cls-10" d="M210.59,434.38a14.76,14.76,0,0,1,28.74,0"/><path class="cls-10" d="M189.33,478.92a37.32,37.32,0,0,1,71.22-.13"/><path class="cls-10" d="M200.52,481a26,26,0,0,1,48.88,0"/><path class="cls-10" d="M210.59,486.63a14.77,14.77,0,0,1,28.74,0"/><path class="cls-10" d="M152.05,452.71a37.32,37.32,0,0,1,71.21-.14"/><path class="cls-10" d="M163.24,454.81a26,26,0,0,1,48.87,0"/><path class="cls-10" d="M173.31,460.42a14.76,14.76,0,0,1,28.73,0"/><path class="cls-10" d="M114.35,426.68a37.32,37.32,0,0,1,71.22-.14"/><path class="cls-10" d="M125.54,428.78a26,26,0,0,1,48.88,0"/><path class="cls-10" d="M135.61,434.38a14.76,14.76,0,0,1,28.74,0"/><path class="cls-10" d="M114.35,478.92a37.32,37.32,0,0,1,71.22-.13"/><path class="cls-10" d="M125.54,481a26,26,0,0,1,48.88,0"/><path class="cls-10" d="M135.61,486.63a14.77,14.77,0,0,1,28.74,0"/><path class="cls-10" d="M264.51,374.59a37.33,37.33,0,0,1,71.22-.14"/><path class="cls-10" d="M275.71,376.69a26,26,0,0,1,48.87,0"/><path class="cls-10" d="M285.78,382.3a14.76,14.76,0,0,1,28.73,0"/><path class="cls-10" d="M226.82,400.8a37.32,37.32,0,0,1,71.22-.13"/><path class="cls-10" d="M238,402.9a26,26,0,0,1,48.88,0"/><path class="cls-10" d="M248.08,408.51a14.77,14.77,0,0,1,28.74,0"/><path class="cls-10" d="M189.54,374.59a37.32,37.32,0,0,1,71.21-.14"/><path class="cls-10" d="M200.73,376.69a26,26,0,0,1,48.87,0"/><path class="cls-10" d="M210.8,382.3a14.76,14.76,0,0,1,28.73,0"/><path class="cls-10" d="M151.84,400.8a37.32,37.32,0,0,1,71.22-.13"/><path class="cls-10" d="M163,402.9a26,26,0,0,1,48.88,0"/><path class="cls-10" d="M173.1,408.51a14.77,14.77,0,0,1,28.74,0"/><path class="cls-10" d="M114.56,374.59a37.32,37.32,0,0,1,71.21-.14"/><path class="cls-10" d="M125.75,376.69a26,26,0,0,1,48.87,0"/><path class="cls-10" d="M135.82,382.3a14.76,14.76,0,0,1,28.73,0"/><path class="cls-10" d="M264.51,530.83a37.32,37.32,0,0,1,71.22-.14"/><path class="cls-10" d="M275.71,532.93a26,26,0,0,1,48.87,0"/><path class="cls-10" d="M285.78,538.53a14.76,14.76,0,0,1,28.73,0"/><path class="cls-10" d="M226.82,557A37.33,37.33,0,0,1,298,556.9"/><path class="cls-10" d="M238,559.14a26,26,0,0,1,48.88,0"/><path class="cls-10" d="M189.54,530.83a37.31,37.31,0,0,1,71.21-.14"/><path class="cls-10" d="M200.73,532.93a26,26,0,0,1,48.87,0"/><path class="cls-10" d="M210.8,538.53a14.76,14.76,0,0,1,28.73,0"/><path class="cls-10" d="M151.84,557a37.33,37.33,0,0,1,71.22-.14"/><path class="cls-10" d="M163,559.14a26,26,0,0,1,48.88,0"/><path class="cls-10" d="M114.56,530.83a37.31,37.31,0,0,1,71.21-.14"/><path class="cls-10" d="M125.75,532.93a26,26,0,0,1,48.87,0"/><path class="cls-10" d="M135.82,538.53a14.76,14.76,0,0,1,28.73,0"/><path class="cls-10" d="M114.56,530.83a37.31,37.31,0,0,1,71.21-.14"/><path class="cls-10" d="M125.75,532.93a26,26,0,0,1,48.87,0"/><path class="cls-10" d="M76.86,504.8a37.32,37.32,0,0,1,71.22-.14"/><path class="cls-10" d="M88.05,506.9a26,26,0,0,1,48.88,0"/><path class="cls-10" d="M98.12,512.5a14.76,14.76,0,0,1,28.74,0"/><path class="cls-10" d="M39.58,530.83a37.31,37.31,0,0,1,71.21-.14"/><path class="cls-10" d="M50.77,532.93a26,26,0,0,1,48.87,0"/><path class="cls-10" d="M1.88,504.8a37.32,37.32,0,0,1,71.22-.14"/><path class="cls-10" d="M13.07,506.9a26,26,0,0,1,48.88,0"/><path class="cls-10" d="M23.14,512.5a14.76,14.76,0,0,1,28.74,0"/><path class="cls-10" d="M.23,504.61a37.31,37.31,0,0,1,35.58,26.08"/><path class="cls-10" d="M.23,515.89a26,26,0,0,1,24.43,17"/><path class="cls-10" d="M114.35,426.68a37.32,37.32,0,0,1,71.22-.14"/><path class="cls-10" d="M125.54,428.78a26,26,0,0,1,48.88,0"/><path class="cls-10" d="M135.61,434.38a14.76,14.76,0,0,1,28.74,0"/><path class="cls-10" d="M114.35,478.92a37.32,37.32,0,0,1,71.22-.13"/><path class="cls-10" d="M125.54,481a26,26,0,0,1,48.88,0"/><path class="cls-10" d="M135.61,486.63a14.77,14.77,0,0,1,28.74,0"/><path class="cls-10" d="M77.07,452.71a37.32,37.32,0,0,1,71.21-.14"/><path class="cls-10" d="M88.26,454.81a26,26,0,0,1,48.87,0"/><path class="cls-10" d="M98.33,460.42a14.76,14.76,0,0,1,28.73,0"/><path class="cls-10" d="M39.37,426.68a37.32,37.32,0,0,1,71.22-.14"/><path class="cls-10" d="M50.56,428.78a26,26,0,0,1,48.88,0"/><path class="cls-10" d="M60.63,434.38a14.76,14.76,0,0,1,28.74,0"/><path class="cls-10" d="M39.37,478.92a37.32,37.32,0,0,1,71.22-.13"/><path class="cls-10" d="M50.56,481a26,26,0,0,1,48.88,0"/><path class="cls-10" d="M60.63,486.63a14.77,14.77,0,0,1,28.74,0"/><path class="cls-10" d="M2.09,452.71a37.32,37.32,0,0,1,71.21-.14"/><path class="cls-10" d="M13.28,454.81a26,26,0,0,1,48.87,0"/><path class="cls-10" d="M23.35,460.42a14.76,14.76,0,0,1,28.73,0"/><path class="cls-10" d="M0,400.46a37.33,37.33,0,0,1,35.59,26.08"/><path class="cls-10" d="M0,411.74a26,26,0,0,1,24.44,17"/><path class="cls-10" d="M0,423a14.77,14.77,0,0,1,14.37,11.38"/><path class="cls-10" d="M0,452.71a37.33,37.33,0,0,1,35.59,26.08"/><path class="cls-10" d="M0,464a26.05,26.05,0,0,1,24.44,17"/><path class="cls-10" d="M0,475.26a14.76,14.76,0,0,1,14.37,11.37"/><path class="cls-10" d="M114.56,374.59a37.32,37.32,0,0,1,71.21-.14"/><path class="cls-10" d="M125.75,376.69a26,26,0,0,1,48.87,0"/><path class="cls-10" d="M135.82,382.3a14.76,14.76,0,0,1,28.73,0"/><path class="cls-10" d="M76.86,400.8a37.32,37.32,0,0,1,71.22-.13"/><path class="cls-10" d="M88.05,402.9a26,26,0,0,1,48.88,0"/><path class="cls-10" d="M98.12,408.51a14.77,14.77,0,0,1,28.74,0"/><path class="cls-10" d="M39.58,374.59a37.32,37.32,0,0,1,71.21-.14"/><path class="cls-10" d="M50.77,376.69a26,26,0,0,1,48.87,0"/><path class="cls-10" d="M60.84,382.3a14.76,14.76,0,0,1,28.73,0"/><path class="cls-10" d="M1.88,400.8a37.32,37.32,0,0,1,71.22-.13"/><path class="cls-10" d="M13.07,402.9a26,26,0,0,1,48.88,0"/><path class="cls-10" d="M23.14,408.51a14.77,14.77,0,0,1,28.74,0"/><path class="cls-10" d="M.23,348.38a37.31,37.31,0,0,1,35.58,26.07"/><path class="cls-10" d="M.23,359.65a26,26,0,0,1,24.43,17"/><path class="cls-10" d="M.23,370.93A14.76,14.76,0,0,1,14.59,382.3"/><path class="cls-10" d="M114.56,530.83a37.31,37.31,0,0,1,71.21-.14"/><path class="cls-10" d="M125.75,532.93a26,26,0,0,1,48.87,0"/><path class="cls-10" d="M135.82,538.53a14.76,14.76,0,0,1,28.73,0"/><path class="cls-10" d="M76.86,557a37.33,37.33,0,0,1,71.22-.14"/><path class="cls-10" d="M88.05,559.14a26,26,0,0,1,48.88,0"/><path class="cls-10" d="M39.58,530.83a37.31,37.31,0,0,1,71.21-.14"/><path class="cls-10" d="M50.77,532.93a26,26,0,0,1,48.87,0"/><path class="cls-10" d="M60.84,538.53a14.76,14.76,0,0,1,28.73,0"/><path class="cls-10" d="M1.88,557a37.33,37.33,0,0,1,71.22-.14"/><path class="cls-10" d="M13.07,559.14a26,26,0,0,1,48.88,0"/><path class="cls-10" d="M.23,504.61a37.31,37.31,0,0,1,35.58,26.08"/><path class="cls-10" d="M.23,515.89a26,26,0,0,1,24.43,17"/><path class="cls-10" d="M.23,527.16a14.77,14.77,0,0,1,14.36,11.38"/><path class="cls-1" d="M735.45,434.37a15.17,15.17,0,0,1,.5-1.62h-2.74C734,433.26,734.72,433.81,735.45,434.37Z"/><path class="cls-1" d="M150,464a26,26,0,0,0-24.4,17,37.33,37.33,0,0,1,10,5.67,14.76,14.76,0,0,1,28.73,0,37.13,37.13,0,0,1,10-5.67A26,26,0,0,0,150,464Z"/><path class="cls-1" d="M660.47,434.37a15.17,15.17,0,0,1,.5-1.62h-2.74C659,433.26,659.74,433.81,660.47,434.37Z"/><path class="cls-1" d="M75,464a26,26,0,0,1,24.41,17,37,37,0,0,1,11.13-2.31,37.32,37.32,0,0,0-71.08,0A37.15,37.15,0,0,1,50.6,481,26,26,0,0,1,75,464Z"/><path class="cls-1" d="M150,464a26,26,0,0,1,24.4,17,37.15,37.15,0,0,1,11.14-2.31,37.31,37.31,0,0,0-71.07,0A37.15,37.15,0,0,1,125.58,481,26,26,0,0,1,150,464Z"/><path class="cls-1" d="M75,464a26,26,0,0,0-24.4,17,37.33,37.33,0,0,1,10,5.67,14.76,14.76,0,0,1,28.73,0,37,37,0,0,1,10-5.67A26,26,0,0,0,75,464Z"/><path class="cls-1" d="M585.49,434.37a15.17,15.17,0,0,1,.5-1.62h-2.74C584,433.26,584.76,433.81,585.49,434.37Z"/><path class="cls-1" d="M285.58,434.37a15.12,15.12,0,0,1,.49-1.62h-2.74C284.1,433.26,284.85,433.81,285.58,434.37Z"/><path class="cls-1" d="M210.6,434.37a15.12,15.12,0,0,1,.49-1.62h-2.74C209.12,433.26,209.87,433.81,210.6,434.37Z"/><path class="cls-1" d="M510.51,434.37a15.17,15.17,0,0,1,.5-1.62h-2.74C509,433.26,509.79,433.81,510.51,434.37Z"/><path class="cls-1" d="M135.62,434.37a15.12,15.12,0,0,1,.49-1.62h-2.74C134.14,433.26,134.89,433.81,135.62,434.37Z"/><path class="cls-1" d="M435.54,434.37a15.12,15.12,0,0,1,.49-1.62h-2.74C434.06,433.26,434.81,433.81,435.54,434.37Z"/><path class="cls-1" d="M360.55,434.37c.14-.55.31-1.09.5-1.62h-2.74C359.08,433.26,359.83,433.81,360.55,434.37Z"/><path class="cls-1" d="M599.86,464a26,26,0,0,1,24.4,17,37.09,37.09,0,0,1,11.13-2.31,37.31,37.31,0,0,0-71.07,0A37,37,0,0,1,575.45,481,26,26,0,0,1,599.86,464Z"/><path class="cls-1" d="M599.86,464a26,26,0,0,0-24.41,17,37,37,0,0,1,10,5.67,14.76,14.76,0,0,1,28.73,0,37.33,37.33,0,0,1,10-5.67A26,26,0,0,0,599.86,464Z"/><path class="cls-1" d="M524.88,464a26,26,0,0,1,24.4,17,37.15,37.15,0,0,1,11.14-2.31,37.32,37.32,0,0,0-71.08,0A37,37,0,0,1,500.47,481,26,26,0,0,1,524.88,464Z"/><path class="cls-1" d="M524.88,464a26,26,0,0,0-24.41,17,37,37,0,0,1,10,5.67,14.76,14.76,0,0,1,28.73,0,37.33,37.33,0,0,1,10-5.67A26,26,0,0,0,524.88,464Z"/><path class="cls-1" d="M60.64,434.37a15.12,15.12,0,0,1,.49-1.62H58.39C59.16,433.26,59.91,433.81,60.64,434.37Z"/><path class="cls-1" d="M674.84,464a26,26,0,0,0-24.41,17,36.77,36.77,0,0,1,10,5.67,14.76,14.76,0,0,1,28.73,0,37.33,37.33,0,0,1,10-5.67A26,26,0,0,0,674.84,464Z"/><path class="cls-1" d="M674.84,464a26,26,0,0,1,24.4,17,37.15,37.15,0,0,1,11.13-2.31,37.31,37.31,0,0,0-71.07,0A37,37,0,0,1,650.43,481,26,26,0,0,1,674.84,464Z"/><path class="cls-1" d="M449.9,464a26,26,0,0,0-24.41,17,37.24,37.24,0,0,1,10.05,5.67,14.76,14.76,0,0,1,28.72,0,37.33,37.33,0,0,1,10-5.67A26,26,0,0,0,449.9,464Z"/><path class="cls-1" d="M299.94,464a26,26,0,0,1,24.4,17,37.15,37.15,0,0,1,11.14-2.31,37.32,37.32,0,0,0-71.08,0A37,37,0,0,1,275.53,481,26,26,0,0,1,299.94,464Z"/><path class="cls-1" d="M225,464a26,26,0,0,0-24.41,17,37.24,37.24,0,0,1,10,5.67,14.76,14.76,0,0,1,28.72,0A37.24,37.24,0,0,1,249.37,481,26,26,0,0,0,225,464Z"/><path class="cls-1" d="M299.94,464a26,26,0,0,0-24.41,17,37.24,37.24,0,0,1,10.05,5.67,14.76,14.76,0,0,1,28.72,0,37.33,37.33,0,0,1,10-5.67A26,26,0,0,0,299.94,464Z"/><path class="cls-1" d="M449.9,464a26,26,0,0,1,24.4,17,37.15,37.15,0,0,1,11.14-2.31,37.32,37.32,0,0,0-71.08,0A37,37,0,0,1,425.49,481,26,26,0,0,1,449.9,464Z"/><path class="cls-1" d="M225,464a26,26,0,0,1,24.41,17,37,37,0,0,1,11.13-2.31,37.32,37.32,0,0,0-71.08,0A37,37,0,0,1,200.55,481,26,26,0,0,1,225,464Z"/><path class="cls-1" d="M374.92,464a26,26,0,0,0-24.41,17,37,37,0,0,1,10,5.67,14.76,14.76,0,0,1,28.73,0,37.33,37.33,0,0,1,10-5.67A26,26,0,0,0,374.92,464Z"/><path class="cls-1" d="M374.92,464a26,26,0,0,1,24.4,17,37.15,37.15,0,0,1,11.14-2.31,37.32,37.32,0,0,0-71.08,0A37,37,0,0,1,350.51,481,26,26,0,0,1,374.92,464Z"/></g><path class="cls-5" d="M569.44,276.22H559.27a4.81,4.81,0,0,1,0-9.61h39.82a6.56,6.56,0,0,0,0-13.11H513a6.56,6.56,0,1,0,0,13.11h11.69a4.81,4.81,0,0,1,0,9.61h-67.9a6.56,6.56,0,1,0,0,13.11h30.48a4.81,4.81,0,0,1,0,9.62H426.94a6.56,6.56,0,1,0,0,13.11H534.55a6.56,6.56,0,0,0,0-13.11h-8.49a4.81,4.81,0,0,1,0-9.62h43.4a6.56,6.56,0,1,0,0-13.11Z"/><path class="cls-5" d="M634.5,112.67H585.33a4.81,4.81,0,0,1,0-9.61h16.86a6.56,6.56,0,0,0,0-13.11H484.4a6.56,6.56,0,1,0,0,13.11h66.39a4.81,4.81,0,0,1,0,9.61H438.44a6.56,6.56,0,0,0,0,13.12h61.27a4.81,4.81,0,0,1,0,9.61h-20.5a6.56,6.56,0,1,0,0,13.11h81.42a6.56,6.56,0,0,0,0-13.11h-8.49a4.81,4.81,0,0,1,0-9.61h82.4a6.56,6.56,0,0,0,0-13.12Z"/><path class="cls-5" d="M363.11,243.43a6.57,6.57,0,0,1-6.56,6.57H308a6.57,6.57,0,0,1-6.57-6.57h0a6.57,6.57,0,0,1,6.57-6.56h48.55a6.56,6.56,0,0,1,6.56,6.56Z"/><path class="cls-5" d="M466.44,45.29a6.57,6.57,0,0,1-6.57,6.56H450.8a6.57,6.57,0,0,1-6.57-6.56h0a6.57,6.57,0,0,1,6.57-6.57h9.07a6.57,6.57,0,0,1,6.57,6.57Z"/><path class="cls-5" d="M155.12,77a6.57,6.57,0,0,1-6.57,6.56h-9.07A6.57,6.57,0,0,1,132.91,77h0a6.57,6.57,0,0,1,6.57-6.57h9.07A6.57,6.57,0,0,1,155.12,77Z"/><path class="cls-5" d="M173.41,253.49a6.57,6.57,0,0,1-6.56,6.57H121.18a6.56,6.56,0,0,1-6.56-6.57h0a6.56,6.56,0,0,1,6.56-6.56h45.67a6.56,6.56,0,0,1,6.56,6.56Z"/><path class="cls-5" d="M717.89,201a6.57,6.57,0,0,1-6.57,6.57H665.66a6.57,6.57,0,0,1-6.57-6.57h0a6.57,6.57,0,0,1,6.57-6.56h45.66a6.57,6.57,0,0,1,6.57,6.56Z"/><path class="cls-5" d="M246.63,130.09H236.45a4.81,4.81,0,0,1,0-9.61H300a6.56,6.56,0,1,0,0-13.11H176.42a6.56,6.56,0,1,0,0,13.11h11.69a4.81,4.81,0,0,1,0,9.61H112.86a6.56,6.56,0,0,0,0,13.12h53.25a4.81,4.81,0,0,1,0,9.61H136.67a6.56,6.56,0,1,0,0,13.11h85.91a6.56,6.56,0,0,0,0-13.11H208.75a4.81,4.81,0,0,1,0-9.61h37.9a6.56,6.56,0,0,0,0-13.12Z"/><path class="cls-3" d="M617.53,206.49a1.86,1.86,0,1,0-1.86,1.86A1.86,1.86,0,0,0,617.53,206.49Z"/><path class="cls-3" d="M615.67,203.48a3.08,3.08,0,0,1,1.35.32,8.88,8.88,0,0,0,.51-3.1c0-2-.54-3.71-1.29-4.3l-.57,1.33-.58-1.33c-.74.59-1.28,2.29-1.28,4.3a8.66,8.66,0,0,0,.51,3.1A3,3,0,0,1,615.67,203.48Z"/><path class="cls-3" d="M612.7,206.94a3,3,0,0,1,.11-1.38,2.91,2.91,0,0,1,.73-1.19,8.83,8.83,0,0,0-2.8-1.44c-1.91-.62-3.7-.64-4.49-.11l1.09,1-1.44.13c.33.9,1.78,1.94,3.69,2.56A8.84,8.84,0,0,0,612.7,206.94Z"/><path class="cls-3" d="M613,207.86a8.93,8.93,0,0,0-2.24,2.21c-1.18,1.63-1.74,3.32-1.48,4.24l1.24-.74L610.2,215c.95,0,2.39-1.09,3.57-2.72a8.69,8.69,0,0,0,1.41-2.81,3,3,0,0,1-2.18-1.59Z"/><path class="cls-3" d="M618.33,207.86a2.81,2.81,0,0,1-.9,1,3,3,0,0,1-1.28.54,8.69,8.69,0,0,0,1.41,2.81c1.18,1.63,2.62,2.69,3.57,2.72l-.31-1.41,1.24.74c.26-.92-.3-2.61-1.49-4.24A8.62,8.62,0,0,0,618.33,207.86Z"/><path class="cls-3" d="M624,203.78l1.08-1c-.79-.53-2.57-.51-4.49.11a8.77,8.77,0,0,0-2.79,1.44,3,3,0,0,1,.72,1.19,3,3,0,0,1,.11,1.38,8.9,8.9,0,0,0,3.12-.47c1.91-.62,3.36-1.66,3.69-2.56Z"/><path class="cls-4" d="M538.4,52.44a3.26,3.26,0,1,0,3.26-3.26A3.26,3.26,0,0,0,538.4,52.44Z"/><path class="cls-4" d="M541.66,57.71a5.21,5.21,0,0,1-2.37-.57,15.32,15.32,0,0,0-.9,5.45c0,3.52,1,6.51,2.26,7.54l1-2.33,1,2.33c1.31-1,2.26-4,2.26-7.54a15.32,15.32,0,0,0-.9-5.45A5.2,5.2,0,0,1,541.66,57.71Z"/><path class="cls-4" d="M546.86,51.65a5.19,5.19,0,0,1-1.47,4.5,15.54,15.54,0,0,0,4.91,2.54c3.35,1.08,6.48,1.1,7.87.18l-1.91-1.68,2.53-.24c-.58-1.56-3.12-3.38-6.48-4.47A15.17,15.17,0,0,0,546.86,51.65Z"/><path class="cls-4" d="M546.34,50a15.32,15.32,0,0,0,3.92-3.87c2.07-2.86,3.06-5.83,2.6-7.43L550.69,40l.55-2.47c-1.67.06-4.19,1.92-6.26,4.77a15.35,15.35,0,0,0-2.47,4.93,5.18,5.18,0,0,1,2.24.94A5.35,5.35,0,0,1,546.34,50Z"/><path class="cls-4" d="M537,50a5.35,5.35,0,0,1,1.58-1.85,5.27,5.27,0,0,1,2.25-.93,15.56,15.56,0,0,0-2.47-4.93c-2.08-2.85-4.6-4.71-6.26-4.77l.55,2.47-2.18-1.29c-.46,1.6.53,4.57,2.6,7.42A15.39,15.39,0,0,0,537,50Z"/><path class="cls-4" d="M527.05,57.19l-1.9,1.67c1.38.93,4.51.91,7.87-.18a15.58,15.58,0,0,0,4.9-2.53,5.27,5.27,0,0,1-1.27-2.08,5.06,5.06,0,0,1-.19-2.43,15.68,15.68,0,0,0-5.46.83c-3.35,1.1-5.9,2.92-6.47,4.48Z"/><path class="cls-3" d="M217.12,214.62a3.26,3.26,0,1,0,3.26-3.27A3.25,3.25,0,0,0,217.12,214.62Z"/><path class="cls-3" d="M220.38,219.88a5.21,5.21,0,0,1-2.37-.56,15.27,15.27,0,0,0-.9,5.44c0,3.53.95,6.51,2.26,7.54l1-2.33,1,2.33c1.31-1,2.26-4,2.26-7.54a15.27,15.27,0,0,0-.9-5.44A5.2,5.2,0,0,1,220.38,219.88Z"/><path class="cls-3" d="M225.58,213.82a5.15,5.15,0,0,1-.2,2.42,5.09,5.09,0,0,1-1.27,2.08,15.54,15.54,0,0,0,4.91,2.54c3.35,1.09,6.48,1.11,7.86.18l-1.9-1.68,2.52-.23c-.57-1.57-3.11-3.39-6.47-4.48A15.39,15.39,0,0,0,225.58,213.82Z"/><path class="cls-3" d="M225.06,212.21a15.54,15.54,0,0,0,3.92-3.88c2.07-2.85,3.06-5.83,2.6-7.43l-2.17,1.29.55-2.47c-1.67.06-4.19,1.92-6.26,4.77a15.35,15.35,0,0,0-2.47,4.93,5.3,5.3,0,0,1,3.83,2.79Z"/><path class="cls-3" d="M215.7,212.21a5.27,5.27,0,0,1,1.58-1.85,5.16,5.16,0,0,1,2.25-.94,15.56,15.56,0,0,0-2.47-4.93c-2.08-2.85-4.6-4.71-6.27-4.77l.56,2.47-2.18-1.29c-.46,1.6.53,4.58,2.6,7.43A15.56,15.56,0,0,0,215.7,212.21Z"/><path class="cls-3" d="M205.77,219.36l-1.9,1.68c1.38.92,4.51.91,7.87-.18a15.58,15.58,0,0,0,4.9-2.54,5.27,5.27,0,0,1-1.27-2.08,5.15,5.15,0,0,1-.2-2.42,15.2,15.2,0,0,0-5.45.83c-3.35,1.09-5.9,2.91-6.47,4.48Z"/><path class="cls-5" d="M205.28,52.49a3.62,3.62,0,1,0-3.62,3.62A3.62,3.62,0,0,0,205.28,52.49Z"/><path class="cls-5" d="M201.66,46.64a5.8,5.8,0,0,1,2.63.63,17,17,0,0,0,1-6c0-3.92-1-7.23-2.51-8.37l-1.12,2.58-1.11-2.58C199.09,34,198,37.31,198,41.23a17,17,0,0,0,1,6A5.79,5.79,0,0,1,201.66,46.64Z"/><path class="cls-5" d="M195.89,53.38a5.8,5.8,0,0,1,.21-2.7,5.94,5.94,0,0,1,1.41-2.3,17.08,17.08,0,0,0-5.44-2.82c-3.72-1.21-7.2-1.23-8.74-.2l2.11,1.86-2.79.26c.63,1.74,3.46,3.77,7.18,5A17.19,17.19,0,0,0,195.89,53.38Z"/><path class="cls-5" d="M196.47,55.17a17.09,17.09,0,0,0-4.36,4.3c-2.3,3.17-3.4,6.47-2.89,8.25l2.42-1.43L191,69c1.86-.07,4.65-2.13,6.95-5.3a17.1,17.1,0,0,0,2.75-5.47,5.81,5.81,0,0,1-2.5-1A6,6,0,0,1,196.47,55.17Z"/><path class="cls-5" d="M206.86,55.17a5.93,5.93,0,0,1-1.76,2,5.76,5.76,0,0,1-2.5,1,17.1,17.1,0,0,0,2.75,5.47c2.3,3.17,5.1,5.23,7,5.3l-.61-2.74,2.42,1.43c.5-1.78-.59-5.08-2.9-8.25A17.06,17.06,0,0,0,206.86,55.17Z"/><path class="cls-5" d="M217.88,47.22,220,45.36c-1.53-1-5-1-8.73.2a17.45,17.45,0,0,0-5.45,2.82,5.71,5.71,0,0,1,1.41,2.3,5.81,5.81,0,0,1,.22,2.7,17.19,17.19,0,0,0,6.06-.92c3.72-1.21,6.54-3.24,7.18-5Z"/><line class="cls-11" x1="703.25" y1="30.93" x2="718.84" y2="30.93"/><line class="cls-11" x1="711.04" y1="23.13" x2="711.04" y2="38.72"/><line class="cls-11" x1="711.04" y1="60.67" x2="711.04" y2="160"/><line class="cls-11" x1="46.75" y1="327.9" x2="31.16" y2="327.9"/><line class="cls-11" x1="38.96" y1="335.7" x2="38.96" y2="320.11"/><line class="cls-11" x1="38.96" y1="298.16" x2="38.96" y2="198.83"/><path class="cls-3" d="M650.89,277.67a2.56,2.56,0,1,0,2.55,2.55A2.56,2.56,0,0,0,650.89,277.67Z"/><circle class="cls-3" cx="666.13" cy="280.22" r="2.55" transform="translate(-56.54 277.64) rotate(-22.61)"/><circle class="cls-3" cx="681.36" cy="280.22" r="2.55"/><circle class="cls-3" cx="696.6" cy="280.22" r="2.55"/><path class="cls-3" d="M711.83,277.67a2.56,2.56,0,1,0,2.56,2.55A2.55,2.55,0,0,0,711.83,277.67Z"/><circle class="cls-3" cx="727.07" cy="280.22" r="2.55" transform="translate(-35.61 120.62) rotate(-9.26)"/><path class="cls-3" d="M650.89,290.92a2.56,2.56,0,1,0,2.55,2.55A2.56,2.56,0,0,0,650.89,290.92Z"/><circle class="cls-3" cx="666.13" cy="293.47" r="2.55" transform="translate(-61.63 278.66) rotate(-22.61)"/><circle class="cls-3" cx="681.36" cy="293.47" r="2.55"/><circle class="cls-3" cx="696.6" cy="293.47" r="2.55"/><path class="cls-3" d="M711.83,290.92a2.56,2.56,0,1,0,2.56,2.55A2.55,2.55,0,0,0,711.83,290.92Z"/><circle class="cls-3" cx="727.07" cy="293.47" r="2.55"/><path class="cls-3" d="M650.89,304.17a2.56,2.56,0,1,0,2.55,2.55A2.56,2.56,0,0,0,650.89,304.17Z"/><circle class="cls-3" cx="666.13" cy="306.72" r="2.55" transform="translate(-66.72 279.67) rotate(-22.61)"/><circle class="cls-3" cx="681.36" cy="306.72" r="2.55"/><circle class="cls-3" cx="696.6" cy="306.72" r="2.55"/><path class="cls-3" d="M711.83,304.17a2.56,2.56,0,1,0,2.56,2.55A2.55,2.55,0,0,0,711.83,304.17Z"/><circle class="cls-3" cx="727.07" cy="306.72" r="2.55"/><circle class="cls-4" cx="63.29" cy="45.43" r="2.55"/><path class="cls-4" d="M65.84,60.67a2.56,2.56,0,1,0-2.55,2.55A2.56,2.56,0,0,0,65.84,60.67Z"/><circle class="cls-4" cx="63.29" cy="75.91" r="2.55"/><circle class="cls-4" cx="63.29" cy="91.14" r="2.55"/><circle class="cls-4" cx="63.29" cy="106.38" r="2.55"/><path class="cls-4" d="M60.73,121.61a2.56,2.56,0,1,0,2.56-2.55A2.56,2.56,0,0,0,60.73,121.61Z"/><circle class="cls-4" cx="50.04" cy="45.43" r="2.55"/><path class="cls-4" d="M52.59,60.67A2.56,2.56,0,1,0,50,63.22,2.56,2.56,0,0,0,52.59,60.67Z"/><circle class="cls-4" cx="50.04" cy="75.91" r="2.55"/><circle class="cls-4" cx="50.04" cy="91.14" r="2.55"/><circle class="cls-4" cx="50.04" cy="106.38" r="2.55"/><path class="cls-4" d="M52.59,121.61A2.56,2.56,0,1,0,50,124.17,2.55,2.55,0,0,0,52.59,121.61Z"/><circle class="cls-4" cx="36.79" cy="45.43" r="2.55"/><path class="cls-4" d="M39.34,60.67a2.56,2.56,0,1,0-2.55,2.55A2.56,2.56,0,0,0,39.34,60.67Z"/><circle class="cls-4" cx="36.79" cy="75.91" r="2.55"/><circle class="cls-4" cx="36.79" cy="91.14" r="2.55"/><circle class="cls-4" cx="36.79" cy="106.38" r="2.55"/><path class="cls-4" d="M39.34,121.61a2.56,2.56,0,1,0-2.55,2.56A2.55,2.55,0,0,0,39.34,121.61Z"/></g></g></svg>