<svg width="18" height="12" viewBox="0 0 18 12" fill="none" xmlns="http://www.w3.org/2000/svg">
<path d="M8.99995 3.78398C10.2241 3.78398 11.2164 4.77633 11.2164 6.00045C11.2164 7.22457 10.2241 8.21692 8.99995 8.21692C7.77583 8.21692 6.78348 7.22457 6.78348 6.00045C6.78348 4.77633 7.77583 3.78398 8.99995 3.78398Z" fill="#2A363B"/>
<path d="M17.8884 6.28128C17.7261 6.45304 13.8644 10.5013 8.99889 10.5013C4.13387 10.5013 0.272747 6.45304 0.11084 6.28128C-0.0368246 6.12355 -0.0368246 5.87758 0.11084 5.7206C0.273389 5.54884 4.13462 1.49872 8.99889 1.49872C13.8644 1.49872 17.7273 5.54884 17.8884 5.7206C18.0372 5.87758 18.0372 6.12483 17.8884 6.28128ZM8.99996 2.57403C7.11115 2.57403 5.57454 4.11096 5.57454 6.00126C5.57454 7.89006 7.11115 9.42786 8.99996 9.42786C10.8887 9.42786 12.4274 7.8906 12.4274 6.00126C12.427 4.11203 10.8887 2.57403 8.99996 2.57403ZM6.28374 9.23597C5.35802 8.45695 4.7558 7.3038 4.7558 6.00126C4.7558 4.69926 5.35802 3.546 6.28374 2.76559C3.72236 3.58937 1.71095 5.32269 0.99201 6.00126C1.71106 6.67908 3.7229 8.41262 6.28374 9.23597ZM11.7175 2.76688C12.6425 3.54643 13.2455 4.69991 13.2455 6.00126C13.2455 7.30262 12.6431 8.45524 11.7167 9.23479C14.278 8.41101 16.2879 6.67983 17.0073 6.00126C16.2878 5.32333 14.2779 3.59183 11.7175 2.76688Z" fill="#2A363B"/>
<rect x="0.858063" y="0.629272" width="19.4643" height="1" rx="0.5" transform="rotate(30 0.858063 0.629272)" fill="#2A363B"/>
</svg>
