<svg width="18" height="18" viewBox="0 0 18 18" fill="none" xmlns="http://www.w3.org/2000/svg">
<path d="M8.99995 6.78398C10.2241 6.78398 11.2164 7.77633 11.2164 9.00045C11.2164 10.2246 10.2241 11.2169 8.99995 11.2169C7.77583 11.2169 6.78348 10.2246 6.78348 9.00045C6.78348 7.77633 7.77583 6.78398 8.99995 6.78398Z" fill="#2A363B"/>
<path d="M17.8884 9.28128C17.7261 9.45304 13.8644 13.5013 8.99889 13.5013C4.13387 13.5013 0.272747 9.45304 0.11084 9.28128C-0.0368246 9.12355 -0.0368246 8.87758 0.11084 8.7206C0.273389 8.54884 4.13462 4.49872 8.99889 4.49872C13.8644 4.49872 17.7273 8.54884 17.8884 8.7206C18.0372 8.87758 18.0372 9.12483 17.8884 9.28128ZM8.99996 5.57403C7.11115 5.57403 5.57454 7.11096 5.57454 9.00126C5.57454 10.8901 7.11115 12.4279 8.99996 12.4279C10.8887 12.4279 12.4274 10.8906 12.4274 9.00126C12.427 7.11203 10.8887 5.57403 8.99996 5.57403ZM6.28374 12.236C5.35802 11.457 4.7558 10.3038 4.7558 9.00126C4.7558 7.69926 5.35802 6.546 6.28374 5.76559C3.72236 6.58937 1.71095 8.32269 0.99201 9.00126C1.71106 9.67908 3.7229 11.4126 6.28374 12.236ZM11.7175 5.76688C12.6425 6.54643 13.2455 7.69991 13.2455 9.00126C13.2455 10.3026 12.6431 11.4552 11.7167 12.2348C14.278 11.411 16.2879 9.67983 17.0073 9.00126C16.2878 8.32333 14.2779 6.59183 11.7175 5.76688Z" fill="#2A363B"/>
</svg>
