<svg width="150" height="150" viewBox="0 0 150 150" fill="none" xmlns="http://www.w3.org/2000/svg">
<rect x="5" y="5" width="140" height="140" rx="20" fill="white" stroke="#F2C94C" stroke-width="10"/>
<path d="M73.774 29C89.5147 29 105.012 36.2494 105.012 53.5892C105.012 69.5796 86.6881 75.729 82.7529 81.507C79.7986 85.805 80.7853 91.8442 72.6683 91.8442C67.3807 91.8442 64.7979 87.5433 64.7979 83.6081C64.7979 68.9643 86.3138 65.6502 86.3138 53.5921C86.3138 46.9551 81.8968 43.0199 74.514 43.0199C58.7732 43.0199 64.9198 59.2482 52.9981 59.2482C48.6943 59.2482 45 56.6654 45 51.7493C44.9971 39.6883 58.7674 29 73.774 29ZM73.1616 99.8278C78.6872 99.8278 83.2463 104.372 83.2463 109.915C83.2463 115.458 78.6959 120.003 73.1616 120.003C67.6274 120.003 63.074 115.464 63.074 109.915C63.074 104.375 67.6274 99.8278 73.1616 99.8278Z" fill="#2A363B"/>
<circle cx="73.003" cy="109.5" r="10.5" fill="#E84A5F"/>
<path d="M102.5 122L103.959 126.491H108.682L104.861 129.267L106.321 133.759L102.5 130.983L98.6794 133.759L100.139 129.267L96.3181 126.491H101.041L102.5 122Z" fill="#F2994A"/>
<path d="M122.035 113L124.168 119.564H131.07L125.486 123.621L127.619 130.186L122.035 126.129L116.451 130.186L118.584 123.621L113 119.564H119.902L122.035 113Z" fill="#E84A5F"/>
<path d="M26.5 18L28.6329 24.5643H35.535L29.9511 28.6213L32.084 35.1857L26.5 31.1287L20.916 35.1857L23.0489 28.6213L17.465 24.5643H24.3671L26.5 18Z" fill="#EB5757"/>
<path d="M125.5 91L126.959 95.4914H131.682L127.861 98.2672L129.321 102.759L125.5 99.9828L121.679 102.759L123.139 98.2672L119.318 95.4914H124.041L125.5 91Z" fill="#F2994A"/>
<path d="M42.5 118L43.9593 122.491H48.6819L44.8613 125.267L46.3206 129.759L42.5 126.983L38.6794 129.759L40.1387 125.267L36.3181 122.491H41.0407L42.5 118Z" fill="#F2994A"/>
<path d="M125.5 31L126.959 35.4914H131.682L127.861 38.2672L129.321 42.7586L125.5 39.9828L121.679 42.7586L123.139 38.2672L119.318 35.4914H124.041L125.5 31Z" fill="#F2994A"/>
<path d="M106.5 15L107.959 19.4914H112.682L108.861 22.2672L110.321 26.7586L106.5 23.9828L102.679 26.7586L104.139 22.2672L100.318 19.4914H105.041L106.5 15Z" fill="#F2994A"/>
<path d="M23.5 103L24.9593 107.491H29.6819L25.8613 110.267L27.3206 114.759L23.5 111.983L19.6794 114.759L21.1387 110.267L17.3181 107.491H22.0407L23.5 103Z" fill="#F2994A"/>
<path d="M51.5 15L52.9593 19.4914H57.6819L53.8613 22.2672L55.3206 26.7586L51.5 23.9828L47.6794 26.7586L49.1387 22.2672L45.3181 19.4914H50.0407L51.5 15Z" fill="#F2994A"/>
<path d="M26.5 46L27.9593 50.4914H32.6819L28.8613 53.2672L30.3206 57.7586L26.5 54.9828L22.6794 57.7586L24.1387 53.2672L20.3181 50.4914H25.0407L26.5 46Z" fill="#F2994A"/>
</svg>
