<svg width="150" height="150" viewBox="0 0 150 150" fill="none" xmlns="http://www.w3.org/2000/svg">
<rect x="5" y="5" width="140" height="140" rx="20" fill="white" stroke="#C4C4C4" stroke-width="10"/>
<g clip-path="url(#clip0)">
<path d="M74.271 30C90.0118 30 105.509 37.2494 105.509 54.5892C105.509 70.5796 87.1852 76.729 83.25 82.507C80.2957 86.805 81.2824 92.8442 73.1653 92.8442C67.8777 92.8442 65.2949 88.5433 65.2949 84.6081C65.2949 69.9643 86.8108 66.6502 86.8108 54.5921C86.8108 47.9551 82.3938 44.0199 75.011 44.0199C59.2702 44.0199 65.4168 60.2482 53.4951 60.2482C49.1913 60.2482 45.497 57.6654 45.497 52.7493C45.4941 40.6883 59.2644 30 74.271 30ZM73.6586 100.828C79.1842 100.828 83.7433 105.372 83.7433 110.915C83.7433 116.458 79.1929 121.003 73.6586 121.003C68.1244 121.003 63.5711 116.464 63.5711 110.915C63.5711 105.375 68.1244 100.828 73.6586 100.828Z" fill="#2A363B"/>
<path d="M74.271 30C90.0118 30 105.509 37.2494 105.509 54.5892C105.509 70.5796 87.1852 76.729 83.25 82.507C80.2957 86.805 81.2824 92.8442 73.1653 92.8442C67.8777 92.8442 65.2949 88.5433 65.2949 84.6081C65.2949 69.9643 86.8108 66.6502 86.8108 54.5921C86.8108 47.9551 82.3938 44.0199 75.011 44.0199C59.2702 44.0199 65.4168 60.2482 53.4951 60.2482C49.1913 60.2482 45.497 57.6654 45.497 52.7493C45.4941 40.6883 59.2644 30 74.271 30ZM73.6586 100.828C79.1842 100.828 83.7433 105.372 83.7433 110.915C83.7433 116.458 79.1929 121.003 73.6586 121.003C68.1244 121.003 63.5711 116.464 63.5711 110.915C63.5711 105.375 68.1244 100.828 73.6586 100.828Z" fill="#2A363B"/>
<circle cx="73.5" cy="110.5" r="10.5" fill="#E84A5F"/>
</g>
<defs>
<clipPath id="clip0">
<rect width="91" height="91" fill="white" transform="translate(30 30)"/>
</clipPath>
</defs>
</svg>
