<svg width="150" height="150" viewBox="0 0 150 150" fill="none" xmlns="http://www.w3.org/2000/svg">
<rect x="5" y="5" width="140" height="140" rx="20" fill="white" stroke="#FF847C" stroke-width="10"/>
<path d="M73.774 29C89.5147 29 105.012 36.2494 105.012 53.5892C105.012 69.5796 86.6881 75.729 82.7529 81.507C79.7986 85.805 80.7853 91.8442 72.6683 91.8442C67.3807 91.8442 64.7979 87.5433 64.7979 83.6081C64.7979 68.9643 86.3138 65.6502 86.3138 53.5921C86.3138 46.9551 81.8968 43.0199 74.514 43.0199C58.7732 43.0199 64.9198 59.2482 52.9981 59.2482C48.6943 59.2482 45 56.6654 45 51.7493C44.9971 39.6883 58.7674 29 73.774 29ZM73.1616 99.8278C78.6872 99.8278 83.2463 104.372 83.2463 109.915C83.2463 115.458 78.6959 120.003 73.1616 120.003C67.6274 120.003 63.074 115.464 63.074 109.915C63.074 104.375 67.6274 99.8278 73.1616 99.8278Z" fill="#2A363B"/>
<path d="M73.774 29C89.5147 29 105.012 36.2494 105.012 53.5892C105.012 69.5796 86.6881 75.729 82.7529 81.507C79.7986 85.805 80.7853 91.8442 72.6683 91.8442C67.3807 91.8442 64.7979 87.5433 64.7979 83.6081C64.7979 68.9643 86.3138 65.6502 86.3138 53.5921C86.3138 46.9551 81.8968 43.0199 74.514 43.0199C58.7732 43.0199 64.9198 59.2482 52.9981 59.2482C48.6943 59.2482 45 56.6654 45 51.7493C44.9971 39.6883 58.7674 29 73.774 29ZM73.1616 99.8278C78.6872 99.8278 83.2463 104.372 83.2463 109.915C83.2463 115.458 78.6959 120.003 73.1616 120.003C67.6274 120.003 63.074 115.464 63.074 109.915C63.074 104.375 67.6274 99.8278 73.1616 99.8278Z" fill="#2A363B"/>
<circle cx="73.003" cy="109.5" r="10.5" fill="#E84A5F"/>
<path d="M122.5 17L124.633 23.5643H131.535L125.951 27.6213L128.084 34.1857L122.5 30.1287L116.916 34.1857L119.049 27.6213L113.465 23.5643H120.367L122.5 17Z" fill="#EB5757"/>
<path d="M27.5 113L29.6329 119.564H36.535L30.9511 123.621L33.084 130.186L27.5 126.129L21.916 130.186L24.0489 123.621L18.465 119.564H25.3671L27.5 113Z" fill="#EB5757"/>
</svg>
